@startuml
class 社員 {
-属性A
#属性B
~操作()
+操作()
}
class 会社 {
  -属性A
  #属性B
  ~操作()
  +操作()

}

社員 -- 会社
社員 ..> 会社
社員 ..|> 会社
社員 --|> 会社
社員 o..|> 会社
社員 *..> 会社
社員 .. 会社
社員 "o..*" -down-o "1" 会社

@enduml

■メモ
表記	線種類	関係
------------------------
--	実線	関連
<--	矢印	実線
<｜--	白抜き矢印 実線	汎化
<｜..	白抜き矢印 破線	実現
o--	白抜き菱形 実線	集約
*--	黒塗り菱形 実線	コンポジション
<..	矢印 破線	依存
..	破線
